<mxfile host="65bd71144e">
    <diagram id="cD52tqRjU22jmfu8s6Lm" name="Page-1">
        <mxGraphModel dx="1840" dy="1625" grid="1" gridSize="10" guides="1" tooltips="1" connect="1" arrows="1" fold="1" page="1" pageScale="1" pageWidth="850" pageHeight="1100" math="0" shadow="0">
            <root>
                <mxCell id="0"/>
                <mxCell id="1" parent="0"/>
                <mxCell id="173" value="innerMargin.left" style="rounded=0;whiteSpace=wrap;html=1;fillColor=none;fontFamily=Lucida Console;strokeColor=none;align=right;" vertex="1" parent="1">
                    <mxGeometry x="-210" y="-10" width="120" height="20" as="geometry"/>
                </mxCell>
                <mxCell id="181" value="innerMargin.right" style="rounded=0;whiteSpace=wrap;html=1;fillColor=none;fontFamily=Lucida Console;strokeColor=none;align=left;" vertex="1" parent="1">
                    <mxGeometry x="90" y="-10" width="120" height="20" as="geometry"/>
                </mxCell>
                <mxCell id="182" value="innerMargin.bottom" style="rounded=0;whiteSpace=wrap;html=1;fillColor=none;fontFamily=Lucida Console;strokeColor=none;align=center;" vertex="1" parent="1">
                    <mxGeometry x="-60" y="160" width="120" height="20" as="geometry"/>
                </mxCell>
                <mxCell id="183" value="innerMargin.top" style="rounded=0;whiteSpace=wrap;html=1;fillColor=none;fontFamily=Lucida Console;strokeColor=none;align=center;" vertex="1" parent="1">
                    <mxGeometry x="-60" y="-180" width="120" height="20" as="geometry"/>
                </mxCell>
                <mxCell id="171" value="" style="rounded=0;whiteSpace=wrap;html=1;strokeColor=none;sketch=1;fillStyle=cross-hatch;fillColor=#E6E6E6;strokeWidth=1;rotation=90;" vertex="1" parent="1">
                    <mxGeometry x="-160" y="-80" width="320" height="160" as="geometry"/>
                </mxCell>
                <mxCell id="172" value="" style="endArrow=block;dashed=1;html=1;fontFamily=Lucida Console;dashPattern=1 2;entryX=0;entryY=0.5;entryDx=0;entryDy=0;exitX=0.125;exitY=0.5;exitDx=0;exitDy=0;exitPerimeter=0;endFill=1;endSize=4;" edge="1" parent="1">
                    <mxGeometry width="50" height="50" relative="1" as="geometry">
                        <mxPoint y="-160" as="sourcePoint"/>
                        <mxPoint y="-120" as="targetPoint"/>
                    </mxGeometry>
                </mxCell>
                <mxCell id="174" value="" style="endArrow=none;dashed=1;html=1;fontFamily=Lucida Console;" edge="1" parent="1">
                    <mxGeometry width="50" height="50" relative="1" as="geometry">
                        <mxPoint x="60" y="-120" as="sourcePoint"/>
                        <mxPoint x="-60" y="-120" as="targetPoint"/>
                    </mxGeometry>
                </mxCell>
                <mxCell id="175" value="" style="endArrow=none;dashed=1;html=1;fontFamily=Lucida Console;" edge="1" parent="1">
                    <mxGeometry width="50" height="50" relative="1" as="geometry">
                        <mxPoint x="60" y="120" as="sourcePoint"/>
                        <mxPoint x="60" y="-120" as="targetPoint"/>
                    </mxGeometry>
                </mxCell>
                <mxCell id="176" value="" style="endArrow=none;dashed=1;html=1;fontFamily=Lucida Console;" edge="1" parent="1">
                    <mxGeometry width="50" height="50" relative="1" as="geometry">
                        <mxPoint x="60" y="120" as="sourcePoint"/>
                        <mxPoint x="-60" y="120" as="targetPoint"/>
                    </mxGeometry>
                </mxCell>
                <mxCell id="177" value="" style="endArrow=none;dashed=1;html=1;fontFamily=Lucida Console;" edge="1" parent="1">
                    <mxGeometry width="50" height="50" relative="1" as="geometry">
                        <mxPoint x="-60" y="120" as="sourcePoint"/>
                        <mxPoint x="-60" y="-120" as="targetPoint"/>
                    </mxGeometry>
                </mxCell>
                <mxCell id="178" value="" style="endArrow=block;dashed=1;html=1;fontFamily=Lucida Console;dashPattern=1 2;endFill=1;endSize=4;" edge="1" parent="1">
                    <mxGeometry width="50" height="50" relative="1" as="geometry">
                        <mxPoint x="80" as="sourcePoint"/>
                        <mxPoint x="60" as="targetPoint"/>
                    </mxGeometry>
                </mxCell>
                <mxCell id="179" value="" style="endArrow=block;dashed=1;html=1;fontFamily=Lucida Console;dashPattern=1 2;entryX=0;entryY=0.5;entryDx=0;entryDy=0;exitX=0.125;exitY=0.5;exitDx=0;exitDy=0;exitPerimeter=0;endFill=1;endSize=4;" edge="1" parent="1">
                    <mxGeometry width="50" height="50" relative="1" as="geometry">
                        <mxPoint y="160" as="sourcePoint"/>
                        <mxPoint y="120" as="targetPoint"/>
                    </mxGeometry>
                </mxCell>
                <mxCell id="180" value="" style="endArrow=block;dashed=1;html=1;fontFamily=Lucida Console;dashPattern=1 2;entryX=0.5;entryY=1;entryDx=0;entryDy=0;endFill=1;endSize=4;" edge="1" parent="1">
                    <mxGeometry width="50" height="50" relative="1" as="geometry">
                        <mxPoint x="-80" as="sourcePoint"/>
                        <mxPoint x="-60" as="targetPoint"/>
                    </mxGeometry>
                </mxCell>
                <mxCell id="184" value="" style="endArrow=none;html=1;" edge="1" parent="1">
                    <mxGeometry width="50" height="50" relative="1" as="geometry">
                        <mxPoint x="80" y="-160" as="sourcePoint"/>
                        <mxPoint x="80" y="160" as="targetPoint"/>
                    </mxGeometry>
                </mxCell>
                <mxCell id="185" value="" style="endArrow=none;html=1;" edge="1" parent="1">
                    <mxGeometry width="50" height="50" relative="1" as="geometry">
                        <mxPoint x="-80" y="-160" as="sourcePoint"/>
                        <mxPoint x="80" y="-160" as="targetPoint"/>
                    </mxGeometry>
                </mxCell>
                <mxCell id="186" value="" style="endArrow=none;html=1;entryX=1;entryY=1;entryDx=0;entryDy=0;" edge="1" parent="1" target="171">
                    <mxGeometry width="50" height="50" relative="1" as="geometry">
                        <mxPoint x="-80" y="-160" as="sourcePoint"/>
                        <mxPoint x="150" y="-150" as="targetPoint"/>
                    </mxGeometry>
                </mxCell>
                <mxCell id="187" value="" style="endArrow=none;html=1;exitX=1;exitY=1;exitDx=0;exitDy=0;" edge="1" parent="1" source="171">
                    <mxGeometry width="50" height="50" relative="1" as="geometry">
                        <mxPoint x="210" y="90" as="sourcePoint"/>
                        <mxPoint x="80" y="160" as="targetPoint"/>
                    </mxGeometry>
                </mxCell>
                <mxCell id="188" value="" style="rounded=0;whiteSpace=wrap;html=1;strokeColor=none;fillColor=#f8cecc;perimeterSpacing=0;rotation=90;" vertex="1" parent="1">
                    <mxGeometry x="-20" y="-140" width="40" height="100" as="geometry"/>
                </mxCell>
                <mxCell id="189" value="" style="rounded=0;whiteSpace=wrap;html=1;strokeColor=none;fillColor=#d5e8d4;perimeterSpacing=0;rotation=90;" vertex="1" parent="1">
                    <mxGeometry x="-30" y="-50" width="60" height="80" as="geometry"/>
                </mxCell>
                <mxCell id="190" value="" style="rounded=0;whiteSpace=wrap;html=1;strokeColor=none;fillColor=#dae8fc;perimeterSpacing=0;rotation=90;" vertex="1" parent="1">
                    <mxGeometry x="-20" y="50" width="60" height="60" as="geometry"/>
                </mxCell>
            </root>
        </mxGraphModel>
    </diagram>
</mxfile>